<?xml version="1.0" encoding="UTF-8" standalone="no"?><!DOCTYPE svg PUBLIC "-//W3C//DTD SVG 1.1//EN" "http://www.w3.org/Graphics/SVG/1.1/DTD/svg11.dtd"><svg width="100%" height="100%" viewBox="0 0 2084 2344" version="1.1" xmlns="http://www.w3.org/2000/svg" xmlns:xlink="http://www.w3.org/1999/xlink" xml:space="preserve" xmlns:serif="http://www.serif.com/" style="fill-rule:evenodd;clip-rule:evenodd;stroke-linejoin:round;stroke-miterlimit:2;"><path d="M1178.39,153.278l729.038,421.921c14.774,-10.311 32.797,-16.281 52.135,-16.281c12.299,0 24.211,2.481 35.04,7.055c11.294,4.652 21.35,11.475 29.781,19.926c8.354,8.373 15.161,18.53 19.879,29.849c4.486,10.932 7.039,22.794 7.039,35.121c0,12.328 -2.475,24.267 -7.039,35.122c-4.641,11.319 -11.448,21.398 -19.879,29.849c-6.188,6.202 -13.305,11.552 -21.117,15.816l-0.078,-0.077c-1.392,0.775 -2.862,1.473 -4.254,2.171l0,843.377c4.873,2.094 9.824,4.575 14.697,7.443c16.244,9.382 29.935,21.709 40.764,35.82c11.216,14.653 19.338,31.244 23.979,48.766c19.725,73.654 -24.134,150.875 -98.391,170.723c-17.404,4.652 -35.814,5.97 -54.146,3.489c-15.238,-2.016 -30.399,-6.591 -44.864,-13.956l-0.542,0l-6.11,-3.489c-4.796,-2.791 -9.437,-5.892 -13.924,-9.226l-707.998,409.672c0.155,2.17 0.155,4.264 0.155,6.435c-0,14.886 -3.017,29.151 -8.431,42.331l-0,0.078c-5.647,13.645 -13.846,25.817 -23.979,35.974c-10.056,10.079 -22.278,18.297 -35.891,23.957c-13.15,5.427 -27.383,8.451 -42.312,8.451c-14.851,-0 -29.161,-3.024 -42.311,-8.451c-13.691,-5.66 -25.835,-13.878 -35.891,-23.957c-10.056,-10.079 -18.255,-22.329 -23.902,-35.974c-5.414,-13.103 -8.431,-27.446 -8.431,-42.409c-0,-1.706 0.077,-3.412 0.155,-5.195l-708.153,-409.827c-4.719,3.567 -9.669,6.9 -14.774,9.847l-0.078,0.077l-0.077,0l-0.078,-0.077c-16.321,9.381 -33.725,15.118 -51.284,17.444c-18.332,2.403 -36.742,1.163 -54.068,-3.489c-17.482,-4.652 -34.112,-12.792 -48.654,-24.034c-14.001,-10.777 -26.3,-24.578 -35.737,-41.014l-0.154,-0.31l-0.078,0.077c-9.282,-16.203 -14.929,-33.648 -17.249,-51.325c-2.398,-18.375 -1.083,-36.749 3.558,-54.116c4.641,-17.522 12.763,-34.114 23.979,-48.767c10.752,-14.033 24.52,-26.36 40.919,-35.819l6.111,-3.489l0.309,0c2.398,-1.24 4.796,-2.403 7.039,-3.411l0,-843.766c-2.011,-0.853 -3.945,-1.705 -5.879,-2.713c-9.05,-4.497 -17.094,-10.389 -23.824,-17.135c-8.354,-8.373 -15.083,-18.452 -19.802,-29.849c-4.486,-10.932 -7.039,-22.794 -7.039,-35.121c0,-12.25 2.475,-24.112 7.039,-35.044l0,-0.078c4.641,-11.241 11.448,-21.398 19.879,-29.771c16.554,-16.592 39.527,-26.903 64.821,-26.903c12.299,-0 24.211,2.481 35.04,7.055c6.807,2.791 13.15,6.435 18.951,10.622l729.348,-422.077c-0.542,-4.962 -0.851,-10.079 -0.851,-15.196c-0,-18.685 3.79,-36.749 10.597,-53.264l-0,-0.077c12.299,-29.849 26.609,-42.254 50.046,-61.714c7.89,-5.428 16.399,-10.002 25.294,-13.723c16.476,-6.823 34.499,-10.622 53.218,-10.622c18.642,0 36.665,3.799 53.141,10.622l0.077,-0c17.095,7.055 32.41,17.444 45.173,30.237c12.763,12.792 23.128,28.143 30.167,45.277l0,0.078c6.807,16.514 10.597,34.501 10.597,53.264c0,4.651 -0.232,9.303 -0.696,13.955l0,-0.155Zm-959.158,1558.44c4.718,-93.425 -129.254,-116.374 -155.709,-26.593c-1.547,6.047 -2.475,12.327 -2.784,18.607c-0.31,6.28 -0,12.638 0.928,18.918c17.404,91.796 152.924,82.492 157.565,-10.855l-0,-0.077Zm743.116,-1576.89c-0.31,6.28 -0,12.637 0.928,18.917c3.79,19.771 14.542,36.595 29.471,48.147c14.929,11.552 33.957,17.832 54.069,16.514c20.111,-1.396 38.134,-10.157 51.361,-23.647c13.227,-13.49 21.736,-31.71 22.741,-51.868c1.006,-20.158 -5.569,-39.153 -17.404,-53.884c-11.834,-14.808 -28.852,-25.352 -48.654,-28.764c-19.879,-3.411 -39.449,0.931 -55.461,10.932c-16.012,10.002 -28.465,25.74 -34.189,45.046c-1.547,6.047 -2.475,12.327 -2.785,18.607l-0.077,-0Zm902.924,1566.82c-0.31,6.28 -0,12.637 0.928,18.917c3.79,19.771 14.542,36.595 29.471,48.147c14.929,11.552 33.957,17.832 54.068,16.514c20.112,-1.396 38.135,-10.157 51.362,-23.647c13.227,-13.49 21.736,-31.71 22.741,-51.868c1.006,-20.158 -5.569,-39.153 -17.404,-53.884c-11.835,-14.808 -28.852,-25.352 -48.654,-28.764c-19.879,-3.411 -39.449,0.931 -55.461,10.932c-16.012,10.002 -28.465,25.74 -34.189,45.045c-1.547,6.048 -2.476,12.328 -2.785,18.608l-0.077,-0Zm-1657.49,-1070.62c1.392,6.435 2.166,13.025 2.166,19.77c-0,12.327 -2.476,24.267 -7.039,35.121c-4.641,11.32 -11.448,21.399 -19.88,29.85c-7.735,7.753 -16.862,14.11 -27.073,18.762c-2.552,1.163 -5.105,2.171 -7.812,3.101l-0,830.275c5.26,0.311 10.365,1.008 15.47,1.861l771.272,-1338.95c-3.945,-4.497 -7.581,-9.304 -10.829,-14.188l-716.353,414.556l0.078,-0.155Zm713.49,565.043l2.088,1.085l0.078,0c4.564,2.403 8.895,5.195 12.918,8.296l471.844,-273.063c-1.083,-5.582 -1.625,-11.242 -1.625,-16.824c0,-12.25 2.476,-24.112 7.039,-35.044l0,-0.077c4.177,-10.157 10.056,-19.305 17.327,-27.136l-337.175,-585.356c-4.254,1.783 -8.586,3.411 -12.995,4.729l-0.077,0c-9.824,3.024 -19.957,4.962 -30.322,5.815l-129.022,917.652l-0.078,-0.077Zm49.196,64.583c1.16,5.814 1.701,11.707 1.701,17.677l0,2.326l856.668,346.484c5.802,-8.684 12.376,-16.437 19.57,-23.259c3.249,-3.024 6.575,-5.97 10.056,-8.684l-339.883,-590.085c-6.497,1.473 -13.304,2.248 -20.188,2.248c-12.299,0 -24.211,-2.481 -35.041,-7.055c-7.812,-3.256 -15.006,-7.443 -21.426,-12.483l-471.303,272.753l-0.154,0.078Zm-22.819,80.166c-0.774,0.853 -1.547,1.706 -2.321,2.481c-16.553,16.592 -39.526,26.903 -64.82,26.903c-12.299,0 -24.211,-2.481 -35.04,-7.055c-9.36,-3.876 -17.869,-9.148 -25.217,-15.583l-548.5,317.41c1.161,3.644 2.166,7.288 3.017,11.009l0,0.078c0.696,3.101 1.315,6.124 1.779,9.226l1522.59,-0l-851.485,-344.391l-0,-0.078Zm-158.029,-50.472c-0.542,-4.032 -0.851,-8.063 -0.851,-12.017c-0,-12.25 2.475,-24.112 7.039,-35.044l-0,-0.078c4.641,-11.242 11.448,-21.398 19.879,-29.771c8.2,-8.219 18.023,-14.886 29.007,-19.538c3.868,-1.628 7.813,-3.024 11.912,-4.109l128.945,-917.265l-762.299,1323.45c2.243,1.706 4.332,3.412 6.498,5.272c3.016,2.559 5.878,5.35 8.74,8.219l551.207,-318.961l-0.077,-0.155Zm708.617,-466.657c12.299,0 24.211,2.481 35.04,7.055c11.293,4.652 21.349,11.475 29.78,19.926c8.354,8.373 15.161,18.53 19.88,29.849c4.486,10.932 7.039,22.794 7.039,35.121c-0,12.328 -2.475,24.268 -7.039,35.122c-2.785,6.667 -6.266,12.87 -10.365,18.607l344.987,598.924c5.338,-1.008 10.752,-1.783 16.244,-2.171l0,-827.174c-3.171,-0.93 -6.343,-2.093 -9.359,-3.334c-11.371,-4.729 -21.427,-11.552 -29.781,-19.847c-8.354,-8.374 -15.083,-18.453 -19.802,-29.85c-4.486,-10.931 -7.039,-22.794 -7.039,-35.121c0,-7.443 0.928,-14.808 2.708,-21.941l-714.187,-413.316l-9.823,14.111l342.435,594.504c3.094,-0.31 6.188,-0.465 9.282,-0.465l-0,0Zm-1226.95,926.723c-1.779,5.428 -3.944,10.855 -6.497,16.204l688.506,398.43l10.674,-10.699c20.034,-20.08 47.649,-32.485 78.202,-32.485c14.775,-0 29.085,3.023 42.234,8.45l0.078,0c13.613,5.66 25.758,13.878 35.891,24.035c3.171,3.179 6.265,6.667 9.05,10.311l689.356,-398.895c-2.397,-5.039 -4.563,-10.156 -6.342,-15.351l-1541.15,0l0,0Z" style="fill-rule:nonzero;"/></svg>